<?xml version="1.0" encoding="iso-8859-1"?>
<!-- Generator: Adobe Illustrator 17.1.0, SVG Export Plug-In . SVG Version: 6.00 Build 0)  -->
<!DOCTYPE svg PUBLIC "-//W3C//DTD SVG 1.1//EN" "http://www.w3.org/Graphics/SVG/1.1/DTD/svg11.dtd">
<svg version="1.1" id="Capa_1" xmlns="http://www.w3.org/2000/svg" xmlns:xlink="http://www.w3.org/1999/xlink" x="0px" y="0px"
	 viewBox="0 0 403.999 403.999" style="enable-background:new 0 0 403.999 403.999;" xml:space="preserve">
<path d="M194.111,100.748c21.061,0,38.195-17.134,38.195-38.194c0-15.056-8.758-28.105-21.446-34.322l8.903-9.867
	c11.01,2.176,20.658,13.83,21.94,27.378c0.009,0.094,0.02,0.188,0.031,0.281c0.008,0.065,0.838,6.646,1.528,13.363
	c0.064,0.626,0.111,1.46,0.172,2.452c0.454,7.505,1.399,23.121,10.252,33.689c5.974,7.132,15.373,11.223,25.788,11.223
	c4.971,0,9-4.029,9-9s-4.029-9-9-9c-5,0-9.481-1.787-11.989-4.781c-5.043-6.02-5.746-17.636-6.084-23.218
	c-0.075-1.232-0.139-2.296-0.232-3.206c-0.665-6.472-1.433-12.63-1.56-13.644C257.251,19.7,237.787,0.034,216.147,0
	c-0.143-0.001-0.27,0.001-0.402,0.007c-0.956,0.036-1.873,0.222-2.73,0.533c-1.341,0.485-2.585,1.299-3.607,2.432l-19.505,21.619
	c-19.088,2.101-33.984,18.324-33.984,37.963C155.918,83.614,173.052,100.748,194.111,100.748z M193.993,42.361
	c0.077,0.002,0.155,0.002,0.232,0c11.084,0.062,20.081,9.097,20.081,20.193c0,11.135-9.06,20.194-20.195,20.194
	c-11.135,0-20.193-9.06-20.193-20.194C173.918,51.458,182.913,42.425,193.993,42.361z M392.65,299.958l-62.316-78.078
	c-0.369-0.462-0.774-0.879-1.208-1.248c-0.661-0.775-1.456-1.439-2.355-1.958c-2.067-1.192-4.529-1.512-6.831-0.892l-38.134,10.264
	l-22.451-67.444c-5.749-17.269-14.563-38.429-31.837-48.871c-1.565-0.946-3.312-1.365-5.003-1.292
	c-2.293-0.076-4.595,0.7-6.407,2.365c-3.335,3.063-11.437,6.64-23.295,6.64c-11.857,0-19.96-3.577-23.296-6.64
	c-1.77-1.624-4.012-2.407-6.237-2.37c-1.501-0.04-3.046,0.301-4.47,1.063c-18.774,10.042-31.818,30.725-41.085,47.62l-37.313,68.038
	L42.84,217.041c-4.796-1.288-9.737,1.552-11.029,6.351L9.693,305.554c-0.621,2.306-0.3,4.763,0.891,6.831
	c1.191,2.068,3.155,3.579,5.46,4.199l74.528,20.062c4.798,1.293,9.737-1.553,11.029-6.351l22.117-82.163
	c0.621-2.306,0.3-4.763-0.891-6.831c-1.191-2.068-3.155-3.579-5.461-4.199L98.3,231.969l35.208-64.196
	c6.676-12.175,16.702-28.685,29.355-37.646c7.811,4.649,18.508,7.317,29.949,7.317c11.302,0,21.875-2.603,29.659-7.146
	c9.835,8.701,15.934,24.364,19.805,35.99l22.118,66.445l-18.982,5.11c-4.799,1.291-7.643,6.229-6.353,11.027l27.285,101.484
	c0.62,2.306,2.131,4.271,4.199,5.462c1.378,0.794,2.929,1.201,4.492,1.201c0.783,0,1.57-0.103,2.34-0.31l74.526-20.063
	c4.798-1.292,7.642-6.229,6.352-11.027l-16.177-60.17l30.489,38.201l-4.253,2.938c-4.09,2.825-5.115,8.431-2.289,12.52
	c2.824,4.092,8.432,5.116,12.52,2.289l12.188-8.42c2.053-1.418,3.425-3.624,3.788-6.092
	C394.884,304.416,394.207,301.908,392.65,299.958z M103.998,252.144l-17.438,64.781l-57.146-15.383l17.438-64.78L103.998,252.144z
	 M281.389,336.987l-22.611-84.101l57.146-15.383l22.61,84.101L281.389,336.987z M250.735,399.138
	c-2.858,4.067-8.471,5.048-12.538,2.188l-18.47-12.98c-0.5-0.344-0.968-0.739-1.393-1.182c-0.001-0.001-0.001-0.001-0.001-0.001
	c-0.001-0.001-0.001-0.001-0.002-0.002c-0.872-0.907-1.524-1.97-1.944-3.108l-33.319-84.892h-7.077l-0.573,81.834
	c-0.021,2.836-1.35,5.356-3.411,6.991c-0.445,0.494-0.952,0.946-1.52,1.345l-18.54,13.03c-1.573,1.106-3.38,1.638-5.167,1.638
	c-2.832,0-5.619-1.333-7.371-3.826c-2.858-4.066-1.879-9.68,2.188-12.538l15.852-11.141l0.541-77.333h-15.684
	c-0.348,0.005-0.695-0.006-1.046-0.04c-1.19-0.113-2.312-0.457-3.321-0.987c-0.883-0.463-1.672-1.064-2.342-1.771
	c-1.214-1.275-2.057-2.906-2.357-4.721c-0.105-0.633-0.145-1.283-0.109-1.941c0.026-0.537,0.101-1.062,0.218-1.569l25.723-125.854
	c0.995-4.869,5.759-8.016,10.619-7.016c4.87,0.995,8.012,5.75,7.016,10.619l-23.561,115.28h35.97c0.059,0,0.117,0,0.176,0h25.771
	l-22.702-73.892c-0.432-1.405-0.513-2.895-0.235-4.339l7.776-40.548c0.936-4.882,5.649-8.08,10.534-7.144
	c4.882,0.937,8.08,5.652,7.144,10.534l-7.354,38.35l25.56,83.194c0.162,0.486,0.284,0.991,0.361,1.511
	c0.157,1.046,0.126,2.089-0.073,3.088c-0.264,1.334-0.823,2.563-1.606,3.615c-0.766,1.032-1.757,1.907-2.929,2.541
	c-0.905,0.492-1.904,0.834-2.963,0.991c-0.517,0.078-1.038,0.112-1.54,0.098h-24.628l29.815,75.964l16.326,11.475
	C252.613,389.458,253.594,395.072,250.735,399.138z"/>
<g>
</g>
<g>
</g>
<g>
</g>
<g>
</g>
<g>
</g>
<g>
</g>
<g>
</g>
<g>
</g>
<g>
</g>
<g>
</g>
<g>
</g>
<g>
</g>
<g>
</g>
<g>
</g>
<g>
</g>
</svg>
